<?xml version="1.0" encoding="iso-8859-1"?>
<!-- Uploaded to: SVG Repo, www.svgrepo.com, Generator: SVG Repo Mixer Tools -->
<svg fill="#000000" height="800px" width="800px" version="1.1" id="Layer_1" xmlns="http://www.w3.org/2000/svg" xmlns:xlink="http://www.w3.org/1999/xlink" 
	 viewBox="0 0 512 512" xml:space="preserve">
<g>
	<g>
		<g>
			<path d="M245.333,170.667C233.557,170.667,224,180.224,224,192s9.557,21.333,21.333,21.333s21.333-9.557,21.333-21.333
				S257.109,170.667,245.333,170.667z"/>
			<path d="M480,309.333c0-15.125-31.168-70.912-46.72-97.813c1.451-7.68,4.053-25.237,4.053-51.52c0-45.547-60.288-160-202.667-160
				C94.869,0,32,106.048,32,181.333c0,53.248,31.467,107.819,56.725,151.616c14.72,25.536,28.608,49.643,28.608,61.717
				c0,27.157-44.16,80.981-61.163,99.435c-2.88,3.115-3.648,7.616-1.941,11.499c1.707,3.904,5.547,6.4,9.771,6.4h234.667
				c5.888,0,10.368-3.115,10.368-9.003c3.776-7.616,41.643-28.075,76.693-33.813C411.989,464.896,448,458.987,448,426.667
				c0-14.059-4.885-21.312-8.085-26.112c-2.176-3.221-2.581-4.011-3.925-5.973c5.717,0.747,11.179-3.371,11.925-9.259
				c0.299-2.261-0.171-4.459-1.173-6.336l8.789-8.789c2.859-2.859,3.861-7.083,2.581-10.923l-7.125-21.376
				C463.253,333.675,480,324.971,480,309.333z M328,192c0,1.557-0.043,3.093-0.107,4.587l15.787,12.373
				c6.037,5.269,7.467,13.184,3.968,19.627l-19.349,33.451c-2.539,4.693-7.723,7.723-13.419,7.723c-1.152,0-4.053-0.469-5.141-0.832
				l-18.987-7.637c-2.645,1.771-5.333,3.328-8.043,4.693l-2.816,19.499c-1.237,7.723-7.701,13.184-15.36,13.184h-38.4
				c-7.488,0-14.059-5.547-15.339-12.907l-2.859-19.925c-2.837-1.429-5.461-2.944-7.893-4.544l-18.539,7.424
				c-1.259,0.512-4.267,1.067-5.632,1.067c-5.376,0-10.325-2.731-13.269-7.296l-19.435-33.664
				c-3.669-6.613-2.261-14.549,3.328-19.456l16.363-12.715c-0.128-1.536-0.213-3.093-0.213-4.651c0-1.6,0.043-3.157,0.149-4.715
				l-15.637-12.245c-6.059-5.312-7.467-13.248-3.904-19.691l19.285-33.387c2.603-4.715,7.765-7.723,13.419-7.723
				c1.152,0,4.053,0.469,5.141,0.832l18.987,7.637c2.645-1.771,5.333-3.307,8.043-4.693l2.816-19.499
				c0.619-7.147,7.339-13.184,15.189-13.184h38.4c7.552,0,14.123,5.589,15.317,12.992l2.859,19.84c2.837,1.408,5.504,2.944,8,4.565
				l18.389-7.445c1.28-0.491,4.288-1.067,5.675-1.067c5.419,0,10.368,2.752,13.291,7.36l19.435,33.6
				c3.797,6.933,2.133,15.189-3.819,19.861l-15.787,12.373C327.957,188.907,328,190.443,328,192z"/>
		</g>
	</g>
</g>
</svg>